<svg width="20" height="19" viewBox="0 0 20 19" fill="none" xmlns="http://www.w3.org/2000/svg">
<path d="M0.0227051 15.5C0.0227051 14.8363 0.572293 14.3 1.24998 14.3H3.34631C3.81958 13.2388 4.90111 12.5 6.15907 12.5C7.41702 12.5 8.46404 13.2388 8.97029 14.3H18.4318C19.1106 14.3 19.6591 14.8363 19.6591 15.5C19.6591 16.1638 19.1106 16.7 18.4318 16.7H8.97029C8.46404 17.7613 7.41702 18.5 6.15907 18.5C4.90111 18.5 3.81958 17.7613 3.34631 16.7H1.24998C0.572293 16.7 0.0227051 16.1638 0.0227051 15.5ZM7.38634 15.5C7.38634 14.8363 6.8379 14.3 6.15907 14.3C5.48023 14.3 4.9318 14.8363 4.9318 15.5C4.9318 16.1638 5.48023 16.7 6.15907 16.7C6.8379 16.7 7.38634 16.1638 7.38634 15.5ZM13.5227 6.5C14.7807 6.5 15.8277 7.23875 16.3339 8.3H18.4318C19.1106 8.3 19.6591 8.83625 19.6591 9.5C19.6591 10.1638 19.1106 10.7 18.4318 10.7H16.3339C15.8277 11.7613 14.7807 12.5 13.5227 12.5C12.2647 12.5 11.1832 11.7613 10.7115 10.7H1.24998C0.572293 10.7 0.0227051 10.1638 0.0227051 9.5C0.0227051 8.83625 0.572293 8.3 1.24998 8.3H10.7115C11.1832 7.23875 12.2647 6.5 13.5227 6.5ZM14.75 9.5C14.75 8.83625 14.2015 8.3 13.5227 8.3C12.8439 8.3 12.2954 8.83625 12.2954 9.5C12.2954 10.1638 12.8439 10.7 13.5227 10.7C14.2015 10.7 14.75 10.1638 14.75 9.5ZM18.4318 2.3C19.1106 2.3 19.6591 2.83738 19.6591 3.5C19.6591 4.16375 19.1106 4.7 18.4318 4.7H10.1976C9.69131 5.76125 8.6443 6.5 7.38634 6.5C6.12839 6.5 5.04685 5.76125 4.57512 4.7H1.24998C0.572293 4.7 0.0227051 4.16375 0.0227051 3.5C0.0227051 2.83738 0.572293 2.3 1.24998 2.3H4.57512C5.04685 1.24063 6.12839 0.5 7.38634 0.5C8.6443 0.5 9.69131 1.24063 10.1976 2.3H18.4318ZM6.15907 3.5C6.15907 4.16375 6.70751 4.7 7.38634 4.7C8.06518 4.7 8.61361 4.16375 8.61361 3.5C8.61361 2.83738 8.06518 2.3 7.38634 2.3C6.70751 2.3 6.15907 2.83738 6.15907 3.5Z" fill="#1F4369"/>
</svg>
