<svg xmlns="http://www.w3.org/2000/svg" viewBox="0 0 106.76 123.19"><defs><style>.cls-1{fill:#fff;}</style></defs><g id="Layer_2" data-name="Layer 2"><g id="Layer_1-2" data-name="Layer 1"><path class="cls-1" d="M67.73.85V31.33A18.2,18.2,0,0,0,66,30.62V.85a.85.85,0,1,1,1.69,0"/><path class="cls-1" d="M67.73.85V31.33A18.2,18.2,0,0,0,66,30.62V.85a.85.85,0,1,1,1.69,0"/><path class="cls-1" d="M67.73,34.14v2.49A10.58,10.58,0,0,0,66,35.7V33.18a12.71,12.71,0,0,1,1.69,1"/><path class="cls-1" d="M67.73,34.14v2.49A10.58,10.58,0,0,0,66,35.7V33.18a12.71,12.71,0,0,1,1.69,1"/><path class="cls-1" d="M66,56.55a11.48,11.48,0,0,0,1.69-.94V58.1a10.82,10.82,0,0,1-1.69,1Z"/><path class="cls-1" d="M66,56.55a11.48,11.48,0,0,0,1.69-.94V58.1a10.82,10.82,0,0,1-1.69,1Z"/><path class="cls-1" d="M66,61.92c.58-.22,1.15-.46,1.69-.72V90.78a.85.85,0,0,1-1.69,0Z"/><path class="cls-1" d="M66,61.92c.58-.22,1.15-.46,1.69-.72V90.78a.85.85,0,0,1-1.69,0Z"/><path class="cls-1" d="M73.47,45.17a14.08,14.08,0,0,0-3.94-9.55,10.75,10.75,0,0,0-1.8-1.48,12.71,12.71,0,0,0-1.69-1,19.84,19.84,0,0,0-8.49-1.62H39.49c-.55,0-1.07,0-1.58-.07v2.57c.51,0,1,.06,1.58.06H57.61A20,20,0,0,1,66,35.7a10.58,10.58,0,0,1,1.69.93,12,12,0,0,1,1.28,1,11.23,11.23,0,0,1,0,17,10.86,10.86,0,0,1-1.28,1,10.63,10.63,0,0,1-1.69.94,20.1,20.1,0,0,1-8.43,1.58H39.49c-.54,0-1.07,0-1.58.06v2.57a13.48,13.48,0,0,1,1.58-.08H57.55A19.69,19.69,0,0,0,66,59.06a10.82,10.82,0,0,0,1.69-1,10.23,10.23,0,0,0,1.8-1.47,14.12,14.12,0,0,0,3.94-9.55h0V45.17ZM53.38,63.61h1.88c.78,0,1.55,0,2.28-.07a3.52,3.52,0,0,0-2-.66,3.4,3.4,0,0,0-2.12.73"/><path class="cls-1" d="M73.47,45.17a14.08,14.08,0,0,0-3.94-9.55,10.75,10.75,0,0,0-1.8-1.48,12.71,12.71,0,0,0-1.69-1,19.84,19.84,0,0,0-8.49-1.62H39.49c-.55,0-1.07,0-1.58-.07v2.57c.51,0,1,.06,1.58.06H57.61A20,20,0,0,1,66,35.7a10.58,10.58,0,0,1,1.69.93,12,12,0,0,1,1.28,1,11.23,11.23,0,0,1,0,17,10.86,10.86,0,0,1-1.28,1,10.63,10.63,0,0,1-1.69.94,20.1,20.1,0,0,1-8.43,1.58H39.49c-.54,0-1.07,0-1.58.06v2.57a13.48,13.48,0,0,1,1.58-.08H57.55A19.69,19.69,0,0,0,66,59.06a10.82,10.82,0,0,0,1.69-1,10.23,10.23,0,0,0,1.8-1.47,14.12,14.12,0,0,0,3.94-9.55h0V45.17ZM53.38,63.61h1.88c.78,0,1.55,0,2.28-.07a3.52,3.52,0,0,0-2-.66,3.4,3.4,0,0,0-2.12.73"/><path class="cls-1" d="M73.5,45.17v1.91h0a14.12,14.12,0,0,1-3.94,9.55,10.23,10.23,0,0,1-1.8,1.47,10.82,10.82,0,0,1-1.69,1,19.69,19.69,0,0,1-8.49,1.62H39.49a13.48,13.48,0,0,0-1.58.08A11.44,11.44,0,0,0,27,72.82a10.52,10.52,0,0,0,3.62,8.34,13.92,13.92,0,0,0,9.55,3.19H61a2.61,2.61,0,0,0,1.64-.64,1.67,1.67,0,0,0,.23-.23,2.88,2.88,0,0,0,.74-2V80.6h.54v11h-.54v-.86a3.31,3.31,0,0,0-.32-1.47,2.49,2.49,0,0,0-2.34-1.42H39.43a13.42,13.42,0,0,1-10.26-4.16,15.25,15.25,0,0,1-3.89-10.86q0-6.69,3.92-10.72a13.31,13.31,0,0,1,8.71-4c.51,0,1-.06,1.58-.06H57.61A20.1,20.1,0,0,0,66,56.55a10.63,10.63,0,0,0,1.69-.94,10.86,10.86,0,0,0,1.28-1,11.23,11.23,0,0,0,0-17,12,12,0,0,0-1.28-1A10.58,10.58,0,0,0,66,35.7a20,20,0,0,0-8.43-1.58H39.49c-.54,0-1.07,0-1.58-.06a13.31,13.31,0,0,1-8.71-4c-2.62-2.7-3.92-6.26-3.92-10.72s1.29-8.08,3.89-10.86A13.39,13.39,0,0,1,39.43,4.35h21.5a2.5,2.5,0,0,0,2.34-1.41,3.37,3.37,0,0,0,.32-1.47V.6h.54V11.65h-.54v-.88a2.9,2.9,0,0,0-.74-2A2.55,2.55,0,0,0,61,7.89H40.19a14,14,0,0,0-9.55,3.18A10.57,10.57,0,0,0,27,19.43a11.72,11.72,0,0,0,3.43,8.81,11.86,11.86,0,0,0,7.46,3.25c.51.05,1,.07,1.58.07H57.55A19.84,19.84,0,0,1,66,33.18a12.71,12.71,0,0,1,1.69,1,10.75,10.75,0,0,1,1.8,1.48,14.08,14.08,0,0,1,3.94,9.55Z"/><path class="cls-1" d="M73.5,45.17v1.91h0a14.12,14.12,0,0,1-3.94,9.55,10.23,10.23,0,0,1-1.8,1.47,10.82,10.82,0,0,1-1.69,1,19.69,19.69,0,0,1-8.49,1.62H39.49a13.48,13.48,0,0,0-1.58.08A11.44,11.44,0,0,0,27,72.82a10.52,10.52,0,0,0,3.62,8.34,13.92,13.92,0,0,0,9.55,3.19H61a2.61,2.61,0,0,0,1.64-.64,1.67,1.67,0,0,0,.23-.23,2.88,2.88,0,0,0,.74-2V80.6h.54v11h-.54v-.86a3.31,3.31,0,0,0-.32-1.47,2.49,2.49,0,0,0-2.34-1.42H39.43a13.42,13.42,0,0,1-10.26-4.16,15.25,15.25,0,0,1-3.89-10.86q0-6.69,3.92-10.72a13.31,13.31,0,0,1,8.71-4c.51,0,1-.06,1.58-.06H57.61A20.1,20.1,0,0,0,66,56.55a10.63,10.63,0,0,0,1.69-.94,10.86,10.86,0,0,0,1.28-1,11.23,11.23,0,0,0,0-17,12,12,0,0,0-1.28-1A10.58,10.58,0,0,0,66,35.7a20,20,0,0,0-8.43-1.58H39.49c-.54,0-1.07,0-1.58-.06a13.31,13.31,0,0,1-8.71-4c-2.62-2.7-3.92-6.26-3.92-10.72s1.29-8.08,3.89-10.86A13.39,13.39,0,0,1,39.43,4.35h21.5a2.5,2.5,0,0,0,2.34-1.41,3.37,3.37,0,0,0,.32-1.47V.6h.54V11.65h-.54v-.88a2.9,2.9,0,0,0-.74-2A2.55,2.55,0,0,0,61,7.89H40.19a14,14,0,0,0-9.55,3.18A10.57,10.57,0,0,0,27,19.43a11.72,11.72,0,0,0,3.43,8.81,11.86,11.86,0,0,0,7.46,3.25c.51.05,1,.07,1.58.07H57.55A19.84,19.84,0,0,1,66,33.18a12.71,12.71,0,0,1,1.69,1,10.75,10.75,0,0,1,1.8,1.48,14.08,14.08,0,0,1,3.94,9.55Z"/><path class="cls-1" d="M59,66.41a3.53,3.53,0,1,1-5.64-2.8,3.4,3.4,0,0,1,2.12-.73A3.54,3.54,0,0,1,59,66.41"/><path class="cls-1" d="M59,66.41a3.53,3.53,0,1,1-5.64-2.8,3.4,3.4,0,0,1,2.12-.73A3.54,3.54,0,0,1,59,66.41"/><path class="cls-1" d="M49,85V81.19a8,8,0,0,1,1.83-5.49,6.11,6.11,0,0,1,4.8-2.08,6.76,6.76,0,0,1,5.07,2,7.18,7.18,0,0,1,1.91,5.2V85h1.47V80.79a7.92,7.92,0,0,0-2.32-5.92,8.46,8.46,0,0,0-6.16-2.25,8.76,8.76,0,0,0-6.24,2.24,7.69,7.69,0,0,0-2.4,5.9V85Z"/><path class="cls-1" d="M49,85V81.19a8,8,0,0,1,1.83-5.49,6.11,6.11,0,0,1,4.8-2.08,6.76,6.76,0,0,1,5.07,2,7.18,7.18,0,0,1,1.91,5.2V85h1.47V80.79a7.92,7.92,0,0,0-2.32-5.92,8.46,8.46,0,0,0-6.16-2.25,8.76,8.76,0,0,0-6.24,2.24,7.69,7.69,0,0,0-2.4,5.9V85Z"/><path class="cls-1" d="M9.48,110.05l8.2,8.28c.43.44.87.87,1.33,1.28a10.94,10.94,0,0,0,1.46,1.1,8.42,8.42,0,0,0,1.65.81,6.27,6.27,0,0,0,1.86.36v.63a3.08,3.08,0,0,0-.42.17,4.37,4.37,0,0,1-.56.22,5.87,5.87,0,0,1-.73.2,4.25,4.25,0,0,1-.91.09A5.77,5.77,0,0,1,20,123a7.47,7.47,0,0,1-1.65-.65,12.94,12.94,0,0,1-2-1.27A23.76,23.76,0,0,1,14,119l-7.67-7.67v11.17H3.19V104.07c0-.53,0-1,0-1.32a4.7,4.7,0,0,0-.14-.84,1.22,1.22,0,0,0-.25-.51,1.45,1.45,0,0,0-.42-.3,2.4,2.4,0,0,0-.77-.31,3.8,3.8,0,0,0-.72-.07H0V100H3.4a8.89,8.89,0,0,1,1.66.12,1.39,1.39,0,0,1,.89.55,2.63,2.63,0,0,1,.36,1.22c0,.53.06,1.25.06,2.14v6.82l2.2-2,5.16-5.08c.44-.43.84-.87,1.21-1.31a9.54,9.54,0,0,1,1.16-1.21,5.25,5.25,0,0,1,1.36-.87,4.47,4.47,0,0,1,1.81-.33H21v.68a5.8,5.8,0,0,0-1,.09,3.84,3.84,0,0,0-1.06.37,7.7,7.7,0,0,0-1.24.76c-.45.33-1,.76-1.55,1.29l-1,1-2.29,2.39Z"/><path class="cls-1" d="M9.48,110.05l8.2,8.28c.43.44.87.87,1.33,1.28a10.94,10.94,0,0,0,1.46,1.1,8.42,8.42,0,0,0,1.65.81,6.27,6.27,0,0,0,1.86.36v.63a3.08,3.08,0,0,0-.42.17,4.37,4.37,0,0,1-.56.22,5.87,5.87,0,0,1-.73.2,4.25,4.25,0,0,1-.91.09A5.77,5.77,0,0,1,20,123a7.47,7.47,0,0,1-1.65-.65,12.94,12.94,0,0,1-2-1.27A23.76,23.76,0,0,1,14,119l-7.67-7.67v11.17H3.19V104.07c0-.53,0-1,0-1.32a4.7,4.7,0,0,0-.14-.84,1.22,1.22,0,0,0-.25-.51,1.45,1.45,0,0,0-.42-.3,2.4,2.4,0,0,0-.77-.31,3.8,3.8,0,0,0-.72-.07H0V100H3.4a8.89,8.89,0,0,1,1.66.12,1.39,1.39,0,0,1,.89.55,2.63,2.63,0,0,1,.36,1.22c0,.53.06,1.25.06,2.14v6.82l2.2-2,5.16-5.08c.44-.43.84-.87,1.21-1.31a9.54,9.54,0,0,1,1.16-1.21,5.25,5.25,0,0,1,1.36-.87,4.47,4.47,0,0,1,1.81-.33H21v.68a5.8,5.8,0,0,0-1,.09,3.84,3.84,0,0,0-1.06.37,7.7,7.7,0,0,0-1.24.76c-.45.33-1,.76-1.55,1.29l-1,1-2.29,2.39Z"/><path class="cls-1" d="M37.77,101.3v8.85h8.91v1.23H37.77v7.4c0,.5,0,.88,0,1.16a2.31,2.31,0,0,0,.1.64.65.65,0,0,0,.19.32,1,1,0,0,0,.3.2,1.49,1.49,0,0,0,.43.1,4.56,4.56,0,0,0,.79,0h3.77c.64,0,1.17,0,1.59,0a5.26,5.26,0,0,0,1.1-.18,3,3,0,0,0,.83-.4,6.36,6.36,0,0,0,.8-.69,8.86,8.86,0,0,0,1-1.28,13.08,13.08,0,0,0,1-1.79h.7l-1.93,5.61H34.6V104a15.72,15.72,0,0,0-.07-1.73,1.56,1.56,0,0,0-.31-.88,2.45,2.45,0,0,0-2-.71h-.78v-.6H48.54V105h-.38a14.35,14.35,0,0,0-.5-1.92,2.58,2.58,0,0,0-.72-1.11,2.47,2.47,0,0,0-1.18-.53,12.14,12.14,0,0,0-1.91-.13Z"/><path class="cls-1" d="M37.77,101.3v8.85h8.91v1.23H37.77v7.4c0,.5,0,.88,0,1.16a2.31,2.31,0,0,0,.1.64.65.65,0,0,0,.19.32,1,1,0,0,0,.3.2,1.49,1.49,0,0,0,.43.1,4.56,4.56,0,0,0,.79,0h3.77c.64,0,1.17,0,1.59,0a5.26,5.26,0,0,0,1.1-.18,3,3,0,0,0,.83-.4,6.36,6.36,0,0,0,.8-.69,8.86,8.86,0,0,0,1-1.28,13.08,13.08,0,0,0,1-1.79h.7l-1.93,5.61H34.6V104a15.72,15.72,0,0,0-.07-1.73,1.56,1.56,0,0,0-.31-.88,2.45,2.45,0,0,0-2-.71h-.78v-.6H48.54V105h-.38a14.35,14.35,0,0,0-.5-1.92,2.58,2.58,0,0,0-.72-1.11,2.47,2.47,0,0,0-1.18-.53,12.14,12.14,0,0,0-1.91-.13Z"/><path class="cls-1" d="M58,100.17h3.11a11.69,11.69,0,0,1,1.41.08,4.52,4.52,0,0,1,1.15.32,4.65,4.65,0,0,1,1,.63,8,8,0,0,1,1,1l11.9,14.73V100.09H79v22.84h-.61L63.74,104.87v17.68H62.3V105a4.07,4.07,0,0,0-1.13-3.12,4.51,4.51,0,0,0-3.19-1Z"/><path class="cls-1" d="M58,100.17h3.11a11.69,11.69,0,0,1,1.41.08,4.52,4.52,0,0,1,1.15.32,4.65,4.65,0,0,1,1,.63,8,8,0,0,1,1,1l11.9,14.73V100.09H79v22.84h-.61L63.74,104.87v17.68H62.3V105a4.07,4.07,0,0,0-1.13-3.12,4.51,4.51,0,0,0-3.19-1Z"/><path class="cls-1" d="M96.55,101.3v8.81h7.5v1.42h-7.5v11H93.38V104.07c0-.51,0-.92,0-1.23a4,4,0,0,0-.09-.79,1.07,1.07,0,0,0-.26-.52,3.18,3.18,0,0,0-.49-.45,4.27,4.27,0,0,0-.73-.29,3.19,3.19,0,0,0-.8-.1h-.78v-.62h16.55V105h-.32a9.35,9.35,0,0,0-.7-1.87,3.18,3.18,0,0,0-.94-1.12,3.4,3.4,0,0,0-1.36-.56,10.69,10.69,0,0,0-1.94-.15Z"/><path class="cls-1" d="M96.55,101.3v8.81h7.5v1.42h-7.5v11H93.38V104.07c0-.51,0-.92,0-1.23a4,4,0,0,0-.09-.79,1.07,1.07,0,0,0-.26-.52,3.18,3.18,0,0,0-.49-.45,4.27,4.27,0,0,0-.73-.29,3.19,3.19,0,0,0-.8-.1h-.78v-.62h16.55V105h-.32a9.35,9.35,0,0,0-.7-1.87,3.18,3.18,0,0,0-.94-1.12,3.4,3.4,0,0,0-1.36-.56,10.69,10.69,0,0,0-1.94-.15Z"/><path class="cls-1" d="M59.23,46.12A3.53,3.53,0,1,1,55.7,42.6a3.53,3.53,0,0,1,3.53,3.52"/><path class="cls-1" d="M59.23,46.12A3.53,3.53,0,1,1,55.7,42.6a3.53,3.53,0,0,1,3.53,3.52"/><path class="cls-1" d="M61.82,18.66c-4.73,1.89-9.53,3.54-14.18,5l-.08-.08L48.14,21c5.38-1.81,11-3.69,15.14-5.3l.08.11Z"/><path class="cls-1" d="M61.82,18.66c-4.73,1.89-9.53,3.54-14.18,5l-.08-.08L48.14,21c5.38-1.81,11-3.69,15.14-5.3l.08.11Z"/><path class="cls-1" d="M36.43,46.5c0-3.87,2.59-5.35,4-5.35s4.24,1.27,4.24,5.45a4.51,4.51,0,0,1-4.31,4.49c-2.63,0-4-2.21-4-4.59M40,43.84A2.38,2.38,0,0,0,37.63,46c0,1,.83,2.35,2.87,2.35,1.8,0,3.11-1.34,3.11-1.76A4.05,4.05,0,0,0,40,43.84"/><path class="cls-1" d="M36.43,46.5c0-3.87,2.59-5.35,4-5.35s4.24,1.27,4.24,5.45a4.51,4.51,0,0,1-4.31,4.49c-2.63,0-4-2.21-4-4.59M40,43.84A2.38,2.38,0,0,0,37.63,46c0,1,.83,2.35,2.87,2.35,1.8,0,3.11-1.34,3.11-1.76A4.05,4.05,0,0,0,40,43.84"/></g></g></svg>