<svg xmlns="http://www.w3.org/2000/svg" viewBox="0 0 78.29 90.34"><defs><style>.cls-1{fill:#1f4369;}</style></defs><g id="Layer_2" data-name="Layer 2"><g id="Layer_1-2" data-name="Layer 1"><path class="cls-1" d="M49.67.62V23c-.4-.19-.81-.37-1.24-.53V.62a.62.62,0,1,1,1.24,0"/><path class="cls-1" d="M49.67.62V23c-.4-.19-.81-.37-1.24-.53V.62a.62.62,0,1,1,1.24,0"/><path class="cls-1" d="M49.67,25v1.82a8.2,8.2,0,0,0-1.24-.68V24.33a9.47,9.47,0,0,1,1.24.71"/><path class="cls-1" d="M49.67,25v1.82a8.2,8.2,0,0,0-1.24-.68V24.33a9.47,9.47,0,0,1,1.24.71"/><path class="cls-1" d="M48.43,41.47a7.45,7.45,0,0,0,1.24-.69v1.83a8.4,8.4,0,0,1-1.24.7Z"/><path class="cls-1" d="M48.43,41.47a7.45,7.45,0,0,0,1.24-.69v1.83a8.4,8.4,0,0,1-1.24.7Z"/><path class="cls-1" d="M48.43,45.41c.43-.16.84-.34,1.24-.53V66.57a.62.62,0,1,1-1.24,0Z"/><path class="cls-1" d="M48.43,45.41c.43-.16.84-.34,1.24-.53V66.57a.62.62,0,1,1-1.24,0Z"/><path class="cls-1" d="M53.88,33.12a10.36,10.36,0,0,0-2.89-7A8.08,8.08,0,0,0,49.67,25a9.47,9.47,0,0,0-1.24-.71,14.61,14.61,0,0,0-6.23-1.18H29a11,11,0,0,1-1.16-.06V25A11.13,11.13,0,0,0,29,25H42.24a14.58,14.58,0,0,1,6.19,1.16,8.6,8.6,0,0,1,2.17,1.39,8.61,8.61,0,0,1,2.88,6.25,8.61,8.61,0,0,1-2.88,6.25,9.49,9.49,0,0,1-.93.71,7.45,7.45,0,0,1-1.24.69,14.74,14.74,0,0,1-6.19,1.16H29c-.39,0-.78,0-1.16,0v1.88c.38,0,.76,0,1.16,0H42.2a14.46,14.46,0,0,0,6.23-1.19,8.4,8.4,0,0,0,1.24-.7A8.08,8.08,0,0,0,51,41.53a10.38,10.38,0,0,0,2.89-7h0v-1.4ZM39.14,46.65h1.39c.57,0,1.13,0,1.67,0a2.53,2.53,0,0,0-1.5-.48,2.49,2.49,0,0,0-1.56.53"/><path class="cls-1" d="M53.88,33.12a10.36,10.36,0,0,0-2.89-7A8.08,8.08,0,0,0,49.67,25a9.47,9.47,0,0,0-1.24-.71,14.61,14.61,0,0,0-6.23-1.18H29a11,11,0,0,1-1.16-.06V25A11.13,11.13,0,0,0,29,25H42.24a14.58,14.58,0,0,1,6.19,1.16,8.6,8.6,0,0,1,2.17,1.39,8.61,8.61,0,0,1,2.88,6.25,8.61,8.61,0,0,1-2.88,6.25,9.49,9.49,0,0,1-.93.71,7.45,7.45,0,0,1-1.24.69,14.74,14.74,0,0,1-6.19,1.16H29c-.39,0-.78,0-1.16,0v1.88c.38,0,.76,0,1.16,0H42.2a14.46,14.46,0,0,0,6.23-1.19,8.4,8.4,0,0,0,1.24-.7A8.08,8.08,0,0,0,51,41.53a10.38,10.38,0,0,0,2.89-7h0v-1.4ZM39.14,46.65h1.39c.57,0,1.13,0,1.67,0a2.53,2.53,0,0,0-1.5-.48,2.49,2.49,0,0,0-1.56.53"/><path class="cls-1" d="M53.9,33.12v1.4h0a10.38,10.38,0,0,1-2.89,7,8.08,8.08,0,0,1-1.32,1.08,8.4,8.4,0,0,1-1.24.7A14.46,14.46,0,0,1,42.2,44.5H29c-.4,0-.78,0-1.16,0a8.7,8.7,0,0,0-5.47,2.39,8.59,8.59,0,0,0-2.52,6.46,7.74,7.74,0,0,0,2.66,6.12,10.21,10.21,0,0,0,7,2.33H44.72a1.88,1.88,0,0,0,1.2-.46l.17-.17a2.12,2.12,0,0,0,.54-1.47v-.64H47V67.2h-.4v-.63a2.52,2.52,0,0,0-.23-1.08,1.85,1.85,0,0,0-1.72-1H28.92a9.85,9.85,0,0,1-7.53-3.05,11.21,11.21,0,0,1-2.85-8,10.76,10.76,0,0,1,2.87-7.86,9.78,9.78,0,0,1,6.39-2.91c.38,0,.77,0,1.16,0H42.24a14.74,14.74,0,0,0,6.19-1.16,7.45,7.45,0,0,0,1.24-.69,9.49,9.49,0,0,0,.93-.71,8.61,8.61,0,0,0,2.88-6.25,8.61,8.61,0,0,0-2.88-6.25,8.6,8.6,0,0,0-2.17-1.39A14.58,14.58,0,0,0,42.24,25H29A11.13,11.13,0,0,1,27.8,25a9.72,9.72,0,0,1-6.39-2.9,10.77,10.77,0,0,1-2.87-7.86,11.17,11.17,0,0,1,2.85-8,9.82,9.82,0,0,1,7.53-3.06H44.68a1.85,1.85,0,0,0,1.72-1,2.47,2.47,0,0,0,.23-1.07V.44H47v8.1h-.4V7.9a2.1,2.1,0,0,0-.54-1.47,1.9,1.9,0,0,0-1.37-.65H29.47a10.26,10.26,0,0,0-7,2.34,7.77,7.77,0,0,0-2.66,6.13,8.61,8.61,0,0,0,2.52,6.46,8.64,8.64,0,0,0,5.47,2.38,11,11,0,0,0,1.16.06H42.2a14.61,14.61,0,0,1,6.23,1.18,9.47,9.47,0,0,1,1.24.71A8.08,8.08,0,0,1,51,26.12a10.36,10.36,0,0,1,2.89,7Z"/><path class="cls-1" d="M53.9,33.12v1.4h0a10.38,10.38,0,0,1-2.89,7,8.08,8.08,0,0,1-1.32,1.08,8.4,8.4,0,0,1-1.24.7A14.46,14.46,0,0,1,42.2,44.5H29c-.4,0-.78,0-1.16,0a8.7,8.7,0,0,0-5.47,2.39,8.59,8.59,0,0,0-2.52,6.46,7.74,7.74,0,0,0,2.66,6.12,10.21,10.21,0,0,0,7,2.33H44.72a1.88,1.88,0,0,0,1.2-.46l.17-.17a2.12,2.12,0,0,0,.54-1.47v-.64H47V67.2h-.4v-.63a2.52,2.52,0,0,0-.23-1.08,1.85,1.85,0,0,0-1.72-1H28.92a9.85,9.85,0,0,1-7.53-3.05,11.21,11.21,0,0,1-2.85-8,10.76,10.76,0,0,1,2.87-7.86,9.78,9.78,0,0,1,6.39-2.91c.38,0,.77,0,1.16,0H42.24a14.74,14.74,0,0,0,6.19-1.16,7.45,7.45,0,0,0,1.24-.69,9.49,9.49,0,0,0,.93-.71,8.61,8.61,0,0,0,2.88-6.25,8.61,8.61,0,0,0-2.88-6.25,8.6,8.6,0,0,0-2.17-1.39A14.58,14.58,0,0,0,42.24,25H29A11.13,11.13,0,0,1,27.8,25a9.72,9.72,0,0,1-6.39-2.9,10.77,10.77,0,0,1-2.87-7.86,11.17,11.17,0,0,1,2.85-8,9.82,9.82,0,0,1,7.53-3.06H44.68a1.85,1.85,0,0,0,1.72-1,2.47,2.47,0,0,0,.23-1.07V.44H47v8.1h-.4V7.9a2.1,2.1,0,0,0-.54-1.47,1.9,1.9,0,0,0-1.37-.65H29.47a10.26,10.26,0,0,0-7,2.34,7.77,7.77,0,0,0-2.66,6.13,8.61,8.61,0,0,0,2.52,6.46,8.64,8.64,0,0,0,5.47,2.38,11,11,0,0,0,1.16.06H42.2a14.61,14.61,0,0,1,6.23,1.18,9.47,9.47,0,0,1,1.24.71A8.08,8.08,0,0,1,51,26.12a10.36,10.36,0,0,1,2.89,7Z"/><path class="cls-1" d="M43.28,48.7a2.59,2.59,0,1,1-4.14-2.05,2.49,2.49,0,0,1,1.56-.53,2.58,2.58,0,0,1,2.58,2.58"/><path class="cls-1" d="M43.28,48.7a2.59,2.59,0,1,1-4.14-2.05,2.49,2.49,0,0,1,1.56-.53,2.58,2.58,0,0,1,2.58,2.58"/><path class="cls-1" d="M35.94,62.35V59.54a5.88,5.88,0,0,1,1.34-4A4.45,4.45,0,0,1,40.8,54a4.91,4.91,0,0,1,3.72,1.45,5.24,5.24,0,0,1,1.4,3.8v3.11H47V59.24a5.77,5.77,0,0,0-1.7-4.33,6.21,6.21,0,0,0-4.52-1.65A6.41,6.41,0,0,0,36.2,54.9a5.62,5.62,0,0,0-1.75,4.32v3.13Z"/><path class="cls-1" d="M35.94,62.35V59.54a5.88,5.88,0,0,1,1.34-4A4.45,4.45,0,0,1,40.8,54a4.91,4.91,0,0,1,3.72,1.45,5.24,5.24,0,0,1,1.4,3.8v3.11H47V59.24a5.77,5.77,0,0,0-1.7-4.33,6.21,6.21,0,0,0-4.52-1.65A6.41,6.41,0,0,0,36.2,54.9a5.62,5.62,0,0,0-1.75,4.32v3.13Z"/><path class="cls-1" d="M7,80.7l6,6.08c.32.32.65.63,1,.93a9.12,9.12,0,0,0,1.07.81,5.89,5.89,0,0,0,1.21.59,4.39,4.39,0,0,0,1.37.27v.46l-.31.13c-.12,0-.26.11-.42.16l-.53.15a3.37,3.37,0,0,1-.66.06,4.09,4.09,0,0,1-1-.13,5.41,5.41,0,0,1-1.21-.48A10.47,10.47,0,0,1,12,88.8a16.82,16.82,0,0,1-1.71-1.53L4.67,81.65v8.19H2.34V76.32c0-.39,0-.71,0-1a3.82,3.82,0,0,0-.1-.62A1,1,0,0,0,2,74.36a1,1,0,0,0-.3-.22,1.68,1.68,0,0,0-.57-.22,2.61,2.61,0,0,0-.53-.06H0v-.5H2.5a6.35,6.35,0,0,1,1.21.09,1,1,0,0,1,.65.41,1.8,1.8,0,0,1,.27.89c0,.39,0,.91,0,1.57v5l1.61-1.51,3.79-3.72a12.78,12.78,0,0,0,.88-1,8.08,8.08,0,0,1,.86-.89,3.84,3.84,0,0,1,1-.63,3.08,3.08,0,0,1,1.32-.25h1.29v.5a3.67,3.67,0,0,0-.75.07,2.59,2.59,0,0,0-.78.27,5.62,5.62,0,0,0-.91.56,13.87,13.87,0,0,0-1.14.94l-.7.75c-.39.42-1,1-1.68,1.76Z"/><path class="cls-1" d="M7,80.7l6,6.08c.32.32.65.63,1,.93a9.12,9.12,0,0,0,1.07.81,5.89,5.89,0,0,0,1.21.59,4.39,4.39,0,0,0,1.37.27v.46l-.31.13c-.12,0-.26.11-.42.16l-.53.15a3.37,3.37,0,0,1-.66.06,4.09,4.09,0,0,1-1-.13,5.41,5.41,0,0,1-1.21-.48A10.47,10.47,0,0,1,12,88.8a16.82,16.82,0,0,1-1.71-1.53L4.67,81.65v8.19H2.34V76.32c0-.39,0-.71,0-1a3.82,3.82,0,0,0-.1-.62A1,1,0,0,0,2,74.36a1,1,0,0,0-.3-.22,1.68,1.68,0,0,0-.57-.22,2.61,2.61,0,0,0-.53-.06H0v-.5H2.5a6.35,6.35,0,0,1,1.21.09,1,1,0,0,1,.65.41,1.8,1.8,0,0,1,.27.89c0,.39,0,.91,0,1.57v5l1.61-1.51,3.79-3.72a12.78,12.78,0,0,0,.88-1,8.08,8.08,0,0,1,.86-.89,3.84,3.84,0,0,1,1-.63,3.08,3.08,0,0,1,1.32-.25h1.29v.5a3.67,3.67,0,0,0-.75.07,2.59,2.59,0,0,0-.78.27,5.62,5.62,0,0,0-.91.56,13.87,13.87,0,0,0-1.14.94l-.7.75c-.39.42-1,1-1.68,1.76Z"/><path class="cls-1" d="M27.7,74.29v6.49h6.54v.9H27.7V87.1c0,.37,0,.65,0,.86a1.73,1.73,0,0,0,.07.47.56.56,0,0,0,.14.23,1.39,1.39,0,0,0,.22.15,1.59,1.59,0,0,0,.32.07,3.22,3.22,0,0,0,.58,0h2.76q.71,0,1.17,0a3.39,3.39,0,0,0,.8-.14,1.81,1.81,0,0,0,.61-.29A4,4,0,0,0,35,88a6.89,6.89,0,0,0,.76-.94,9.24,9.24,0,0,0,.76-1.32H37L35.6,89.82H25.37V76.26A10.8,10.8,0,0,0,25.32,75a1,1,0,0,0-.23-.64,1.78,1.78,0,0,0-1.46-.53h-.57v-.43H35.6V77h-.28A12.54,12.54,0,0,0,35,75.58a1.71,1.71,0,0,0-1.4-1.2,8.68,8.68,0,0,0-1.4-.09Z"/><path class="cls-1" d="M27.7,74.29v6.49h6.54v.9H27.7V87.1c0,.37,0,.65,0,.86a1.73,1.73,0,0,0,.07.47.56.56,0,0,0,.14.23,1.39,1.39,0,0,0,.22.15,1.59,1.59,0,0,0,.32.07,3.22,3.22,0,0,0,.58,0h2.76q.71,0,1.17,0a3.39,3.39,0,0,0,.8-.14,1.81,1.81,0,0,0,.61-.29A4,4,0,0,0,35,88a6.89,6.89,0,0,0,.76-.94,9.24,9.24,0,0,0,.76-1.32H37L35.6,89.82H25.37V76.26A10.8,10.8,0,0,0,25.32,75a1,1,0,0,0-.23-.64,1.78,1.78,0,0,0-1.46-.53h-.57v-.43H35.6V77h-.28A12.54,12.54,0,0,0,35,75.58a1.71,1.71,0,0,0-1.4-1.2,8.68,8.68,0,0,0-1.4-.09Z"/><path class="cls-1" d="M42.52,73.46H44.8a8.1,8.1,0,0,1,1,.06,3.25,3.25,0,0,1,.84.23,3.56,3.56,0,0,1,.73.46,5.83,5.83,0,0,1,.73.75l8.73,10.79V73.4h1.06V90.15h-.45L46.74,76.9v13H45.68V77a3,3,0,0,0-.82-2.28,3.33,3.33,0,0,0-2.34-.77Z"/><path class="cls-1" d="M42.52,73.46H44.8a8.1,8.1,0,0,1,1,.06,3.25,3.25,0,0,1,.84.23,3.56,3.56,0,0,1,.73.46,5.83,5.83,0,0,1,.73.75l8.73,10.79V73.4h1.06V90.15h-.45L46.74,76.9v13H45.68V77a3,3,0,0,0-.82-2.28,3.33,3.33,0,0,0-2.34-.77Z"/><path class="cls-1" d="M70.8,74.29v6.46h5.5v1H70.8v8.09H68.48V76.32c0-.37,0-.68,0-.91a3,3,0,0,0-.07-.58.91.91,0,0,0-.19-.38,2.38,2.38,0,0,0-.36-.32,2.52,2.52,0,0,0-.54-.21,2,2,0,0,0-.58-.08h-.58v-.45H78.29V77h-.23a8,8,0,0,0-.51-1.37,2.4,2.4,0,0,0-.7-.83,2.5,2.5,0,0,0-1-.4,7.24,7.24,0,0,0-1.42-.11Z"/><path class="cls-1" d="M70.8,74.29v6.46h5.5v1H70.8v8.09H68.48V76.32c0-.37,0-.68,0-.91a3,3,0,0,0-.07-.58.91.91,0,0,0-.19-.38,2.38,2.38,0,0,0-.36-.32,2.52,2.52,0,0,0-.54-.21,2,2,0,0,0-.58-.08h-.58v-.45H78.29V77h-.23a8,8,0,0,0-.51-1.37,2.4,2.4,0,0,0-.7-.83,2.5,2.5,0,0,0-1-.4,7.24,7.24,0,0,0-1.42-.11Z"/><path class="cls-1" d="M43.43,33.82a2.58,2.58,0,1,1-2.58-2.58,2.57,2.57,0,0,1,2.58,2.58"/><path class="cls-1" d="M43.43,33.82a2.58,2.58,0,1,1-2.58-2.58,2.57,2.57,0,0,1,2.58,2.58"/><path class="cls-1" d="M45.34,13.69c-3.47,1.38-7,2.59-10.41,3.69l0-.06.42-1.94c4-1.33,8.06-2.71,11.11-3.89l.05.08Z"/><path class="cls-1" d="M45.34,13.69c-3.47,1.38-7,2.59-10.41,3.69l0-.06.42-1.94c4-1.33,8.06-2.71,11.11-3.89l.05.08Z"/><path class="cls-1" d="M26.71,34.1c0-2.84,1.9-3.93,3-3.93s3.11.94,3.11,4a3.31,3.31,0,0,1-3.17,3.3c-1.92,0-2.91-1.62-2.91-3.37m2.61-2a1.74,1.74,0,0,0-1.72,1.59,1.86,1.86,0,0,0,2.1,1.73A2.49,2.49,0,0,0,32,34.17a3,3,0,0,0-2.66-2"/><path class="cls-1" d="M26.71,34.1c0-2.84,1.9-3.93,3-3.93s3.11.94,3.11,4a3.31,3.31,0,0,1-3.17,3.3c-1.92,0-2.91-1.62-2.91-3.37m2.61-2a1.74,1.74,0,0,0-1.72,1.59,1.86,1.86,0,0,0,2.1,1.73A2.49,2.49,0,0,0,32,34.17a3,3,0,0,0-2.66-2"/></g></g></svg>