<svg width="103" height="23" viewBox="0 0 103 23" fill="none" xmlns="http://www.w3.org/2000/svg">
<path d="M9.69691 9.9964L17.5059 17.955C17.9181 18.3808 18.3426 18.79 18.7797 19.1824C19.2138 19.574 19.6788 19.9292 20.1701 20.2446C20.6628 20.5588 21.1882 20.8176 21.7369 21.0161C22.3084 21.2234 22.9079 21.3417 23.5147 21.3668V21.9756C23.3757 22.0143 23.2409 22.0672 23.1124 22.1334C22.9379 22.2174 22.7579 22.2894 22.5736 22.3488C22.3676 22.419 22.1366 22.4816 21.8784 22.5417C21.5952 22.6023 21.3063 22.6317 21.0168 22.6294C20.5844 22.6216 20.1544 22.5627 19.7356 22.454C19.1895 22.3081 18.6621 22.0988 18.1639 21.8303C17.5002 21.4768 16.868 21.0661 16.2743 20.6028C15.4845 19.9876 14.7378 19.318 14.0396 18.5988L6.74216 11.2339V21.9681H3.70547V4.2473C3.70547 3.74629 3.70547 3.31292 3.66574 2.97975C3.65062 2.70478 3.6082 2.43203 3.53912 2.1656C3.49461 1.98646 3.40962 1.82013 3.29082 1.67962C3.17864 1.55796 3.04359 1.46003 2.89354 1.39154C2.66459 1.24922 2.41236 1.14913 2.14865 1.09595C1.92206 1.0509 1.6918 1.02742 1.46086 1.02581H0.656372V0.371985H3.91156C4.44129 0.360757 4.97087 0.400179 5.49322 0.489723C5.66156 0.517213 5.82284 0.57808 5.96774 0.668802C6.11264 0.759524 6.23829 0.878308 6.33743 1.01829C6.54762 1.37361 6.66469 1.77707 6.6776 2.19066C6.71898 2.69167 6.7405 3.37721 6.74216 4.2473V10.803L8.82786 8.82404L13.7442 3.94419C14.1511 3.54797 14.5365 3.12985 14.8988 2.69167C15.2365 2.27657 15.6069 1.88955 16.0062 1.53433C16.3936 1.19063 16.8306 0.908496 17.3023 0.697646C17.8483 0.471192 18.4353 0.362806 19.0255 0.3795H20.7015V1.03332C20.3685 1.03215 20.036 1.0615 19.7083 1.121C19.3565 1.19147 19.0158 1.30943 18.6952 1.47171C18.2826 1.68157 17.8888 1.92715 17.5183 2.20569C17.0046 2.5908 16.5115 3.00304 16.0409 3.44068C15.9342 3.55841 15.6287 3.88658 15.1222 4.43017C14.6157 4.97377 13.8807 5.73782 12.9422 6.72731L9.69691 9.9964Z" fill="#2A3F66"/>
<path d="M36.6443 1.58369V10.0833H45.1336V11.2632H36.6443V18.3776C36.6443 18.856 36.6443 19.2268 36.6692 19.4948C36.6753 19.7026 36.7069 19.9087 36.7635 20.1086C36.795 20.2267 36.8576 20.3341 36.9448 20.4192C37.0332 20.4923 37.1289 20.5561 37.2303 20.6096C37.3654 20.6574 37.5053 20.6902 37.6474 20.7073C37.8943 20.7407 38.1432 20.7566 38.3923 20.7549H42.0001C42.6109 20.7549 43.1175 20.7398 43.5172 20.7148C43.8711 20.6959 44.2217 20.6371 44.5626 20.5394C44.8443 20.4548 45.1108 20.3254 45.3521 20.1562C45.618 19.9566 45.8671 19.7355 46.097 19.4948C46.4639 19.1156 46.7963 18.704 47.0902 18.2648C47.4568 17.7156 47.7837 17.1404 48.0685 16.5439H48.734L46.899 21.9347H33.625V4.1664C33.6327 3.61018 33.6086 3.05397 33.553 2.50054C33.5463 2.19767 33.4446 1.90475 33.2625 1.66385C32.8934 1.20459 32.261 0.975798 31.3655 0.977468H30.6206V0.403809H46.904V5.12333H46.5415C46.4201 4.49982 46.2592 3.88483 46.0598 3.28212C45.9301 2.87145 45.6955 2.5025 45.3795 2.21246C45.0532 1.94799 44.6635 1.77516 44.2497 1.71145C43.6478 1.61589 43.0389 1.57315 42.4297 1.58369H36.6443Z" fill="#2A3F66"/>
<path d="M55.9053 0.499597H58.86C59.3115 0.495959 59.7627 0.521898 60.2108 0.577253C60.5876 0.625907 60.9555 0.728828 61.3033 0.88287C61.6474 1.03974 61.969 1.24282 62.2592 1.48659C62.6033 1.78248 62.9207 2.10858 63.2077 2.46106L74.5276 16.6071V0.419434H75.9032V22.3662H75.3197L61.3753 5.0137V21.998H59.9997V5.09137C59.9997 3.76369 59.6413 2.76167 58.9246 2.0853C58.2078 1.40894 57.1964 1.07493 55.8904 1.08328L55.9053 0.499597Z" fill="#2A3F66"/>
<path d="M92.6279 1.5835V10.0531H99.7739V11.4083H92.6279V22.0197H89.6085V4.24637C89.6085 3.75788 89.6085 3.35958 89.5912 3.05898C89.5873 2.80616 89.5582 2.55438 89.5043 2.30746C89.4638 2.12232 89.3785 1.95019 89.256 1.80645C89.1127 1.64929 88.9538 1.50742 88.7817 1.38309C88.5616 1.26245 88.3283 1.16829 88.0865 1.10253C87.8387 1.03521 87.5833 1.00068 87.3267 0.999822H86.5818V0.411133H102.344V5.14569H102.041C101.884 4.5256 101.662 3.92428 101.378 3.35207C101.165 2.925 100.856 2.55368 100.477 2.26738C100.089 1.9944 99.6464 1.8121 99.1804 1.7338C98.5693 1.63009 97.9502 1.58231 97.3306 1.59102L92.6279 1.5835Z" fill="#2A3F66"/>
</svg>
