<svg width="18" height="19" viewBox="0 0 18 19" fill="none" xmlns="http://www.w3.org/2000/svg">
<path d="M6.1875 17.375L6.1875 4.33906L8.20477 6.35633C8.64422 6.79578 9.35613 6.79578 9.79559 6.35633C10.016 6.13906 10.125 5.85078 10.125 5.5625C10.125 5.27422 10.0151 4.98664 9.79541 4.76727L5.85791 0.829765C5.41846 0.390312 4.70654 0.390312 4.26709 0.829765L0.32959 4.76727C-0.109863 5.20672 -0.109863 5.91863 0.32959 6.35809C0.769043 6.79754 1.48096 6.79754 1.92041 6.35809L3.9375 4.33906L3.9375 17.375C3.9375 17.9969 4.44059 18.5 5.0625 18.5C5.68441 18.5 6.1875 17.9969 6.1875 17.375ZM11.8125 1.625L11.8125 14.6574L9.79523 12.6402C9.35578 12.2007 8.64387 12.2007 8.20441 12.6402C7.76496 13.0796 7.76496 13.7915 8.20441 14.231L12.1419 18.1685C12.5814 18.6079 13.2933 18.6079 13.7327 18.1685L17.6702 14.231C17.891 14.0141 18 13.7258 18 13.4375C18 13.1492 17.8901 12.8616 17.6704 12.6423C17.231 12.2028 16.519 12.2028 16.0796 12.6423L14.0625 14.6574L14.0625 1.625C14.0625 1.00309 13.5594 0.5 12.9375 0.5C12.3156 0.5 11.8125 1.00274 11.8125 1.625Z" fill="#1F4369"/>
</svg>
